0
SECTION
2
HEADER
9
$INSUNITS
70
4
9
$ACADVER
1
AC1014
9
$HANDSEED
5
FFFF
0
ENDSEC
0
SECTION
2
TABLES
0
TABLE
2
VPORT
5
8
100
AcDbSymbolTable
0
ENDTAB
0
TABLE
2
LTYPE
5
5
100
AcDbSymbolTable
0
LTYPE
5
14
100
AcDbSymbolTableRecord
100
AcDbLinetypeTableRecord
2
BYBLOCK
70
0
0
LTYPE
5
15
100
AcDbSymbolTableRecord
100
AcDbLinetypeTableRecord
2
BYLAYER
70
0
0
ENDTAB
0
TABLE
2
LAYER
5
2
100
AcDbSymbolTable
70
2
0
LAYER
5
50
100
AcDbSymbolTableRecord
100
AcDbLayerTableRecord
2
0
70
0
6
CONTINUOUS
0
ENDTAB
0
TABLE
2
STYLE
5
3
100
AcDbSymbolTable
70
1
0
STYLE
5
11
100
AcDbSymbolTableRecord
100
AcDbTextStyleTableRecord
2
STANDARD
70
0
0
ENDTAB
0
TABLE
2
VIEW
5
6
100
AcDbSymbolTable
70
0
0
ENDTAB
0
TABLE
2
UCS
5
7
100
AcDbSymbolTable
70
0
0
ENDTAB
0
TABLE
2
APPID
5
9
100
AcDbSymbolTable
70
2
0
APPID
5
12
100
AcDbSymbolTableRecord
100
AcDbRegAppTableRecord
2
ACAD
70
0
0
ENDTAB
0
TABLE
2
DIMSTYLE
5
A
100
AcDbSymbolTable
70
1
0
ENDTAB
0
TABLE
2
BLOCK_RECORD
5
1
100
AcDbSymbolTable
70
1
0
BLOCK_RECORD
5
1F
100
AcDbSymbolTableRecord
100
AcDbBlockTableRecord
2
*MODEL_SPACE
0
BLOCK_RECORD
5
1B
100
AcDbSymbolTableRecord
100
AcDbBlockTableRecord
2
*PAPER_SPACE
0
ENDTAB
0
ENDSEC
0
SECTION
2
BLOCKS
0
BLOCK
5
20
100
AcDbEntity
100
AcDbBlockBegin
2
*MODEL_SPACE
0
ENDBLK
5
21
100
AcDbEntity
100
AcDbBlockEnd
0
BLOCK
5
1C
100
AcDbEntity
100
AcDbBlockBegin
2
*PAPER_SPACE
0
ENDBLK
5
1D
100
AcDbEntity
100
AcDbBlockEnd
0
ENDSEC
0
SECTION
2
ENTITIES
0
LWPOLYLINE
5
100
100
AcDbEntity
8
0
100
AcDbPolyline
90
20
70
1
43
0.0
10
90.328497416975637
20
21.564395801837854
10
92.614395801837887
20
19.27849741697564
42
1.8613542276829893
10
96.783497607661687
20
19.281679311152928
10
99.070130054371788
20
21.565303635261959
42
0.81677088430947642
10
102.53560419816212
20
25.02849741697565
10
106.90710678118633
20
29.4
10
189.4
20
29.4
10
189.4
20
0
10
-189.4
20
0
10
-189.4
20
29.4
10
-106.90710678118664
20
29.4
10
-102.53560419816219
20
25.028497416975583
42
0.81649658092772159
10
-99.07150258302444
20
21.564395801837847
10
-96.785604198162147
20
19.278497416975625
42
1.8596517116686793
10
-92.614395801837844
20
19.278497416975604
10
-90.328497416975637
20
21.564395801837858
42
0.81649658092773092
10
-86.864395801837887
20
25.028497416975604
10
-82.492893218813478
20
29.4
10
82.492893218813407
20
29.4
10
86.864395801837858
20
25.028497416975583
42
0.81649658092772215
0
LWPOLYLINE
5
101
100
AcDbEntity
8
0
100
AcDbPolyline
90
4
70
1
43
0.0
10
10.5
20
3
10
-10.5
20
3
10
-10.5
20
8
10
10.5
20
8
0
LINE
5
102
100
AcDbEntity
8
0
62
1
100
AcDbLine
10
-92.2
20
17.9
30
0
11
92.2
21
17.9
31
0
0
CIRCLE
5
103
100
AcDbEntity
8
0
100
AcDbCircle
10
-33
20
9
30
0
40
1.325
210
0
220
0
230
1
0
LINE
5
104
100
AcDbEntity
8
0
62
1
100
AcDbLine
10
94.7
20
0
30
0
11
94.7
21
15.4
31
0
0
LINE
5
105
100
AcDbEntity
8
0
62
1
100
AcDbLine
10
97.2
20
17.9
30
0
11
189.4
21
17.9
31
0
0
LINE
5
106
100
AcDbEntity
8
0
62
1
100
AcDbLine
10
-94.7
20
0
30
0
11
-94.7
21
15.4
31
0
0
CIRCLE
5
107
100
AcDbEntity
8
0
100
AcDbCircle
10
33
20
9
30
0
40
1.325
210
0
220
0
230
1
0
LINE
5
108
100
AcDbEntity
8
0
62
1
100
AcDbLine
10
-189.4
20
17.9
30
0
11
-97.2
21
17.9
31
0
0
CIRCLE
5
109
100
AcDbEntity
8
0
100
AcDbCircle
10
108.3
20
23.4
30
0
40
1.75
210
0
220
0
230
1
0
CIRCLE
5
110
100
AcDbEntity
8
0
100
AcDbCircle
10
115.7
20
23.4
30
0
40
1.75
210
0
220
0
230
1
0
CIRCLE
5
111
100
AcDbEntity
8
0
100
AcDbCircle
10
-115.7
20
23.4
30
0
40
1.75
210
0
220
0
230
1
0
CIRCLE
5
112
100
AcDbEntity
8
0
100
AcDbCircle
10
-108.3
20
23.4
30
0
40
1.75
210
0
220
0
230
1
0
ENDSEC
0
SECTION
2
OBJECTS
0
DICTIONARY
5
C
100
AcDbDictionary
3
ACAD_GROUP
350
D
3
ACAD_MLINESTYLE
350
17
0
DICTIONARY
5
D
100
AcDbDictionary
0
DICTIONARY
5
1A
330
C
100
AcDbDictionary
0
DICTIONARY
5
17
100
AcDbDictionary
0
ENDSEC
0
EOF
